<?xml version="1.0" encoding="UTF-8"?>
<svg width="22px" height="23px" viewBox="0 0 22 23" version="1.1" xmlns="http://www.w3.org/2000/svg" xmlns:xlink="http://www.w3.org/1999/xlink">
    <!-- Generator: Sketch 50.2 (55047) - http://www.bohemiancoding.com/sketch -->
    <title>Group</title>
    <desc>Created with Sketch.</desc>
    <defs></defs>
    <g id="Page-1" stroke="none" stroke-width="1" fill="none" fill-rule="evenodd">
        <g id="Mobile-Navigation" transform="translate(-263.000000, -33.000000)" fill="#045CEF" fill-rule="nonzero">
            <g id="Group" transform="translate(263.000000, 33.000000)">
                <path d="M24.3793103,13 L-2.37931034,13 C-2.72193103,13 -3,12.664 -3,12.25 L-3,10.75 C-3,10.336 -2.72193103,10 -2.37931034,10 L24.3793103,10 C24.721931,10 25,10.336 25,10.75 L25,12.25 C25,12.664 24.721931,13 24.3793103,13 Z" id="Shape-Copy" transform="translate(11.000000, 11.500000) rotate(45.000000) translate(-11.000000, -11.500000) "></path>
                <path d="M24.3793103,13 L-2.37931034,13 C-2.72193103,13 -3,12.664 -3,12.25 L-3,10.75 C-3,10.336 -2.72193103,10 -2.37931034,10 L24.3793103,10 C24.721931,10 25,10.336 25,10.75 L25,12.25 C25,12.664 24.721931,13 24.3793103,13 Z" id="Shape-Copy-2" transform="translate(11.000000, 11.500000) rotate(-45.000000) translate(-11.000000, -11.500000) "></path>
            </g>
        </g>
    </g>
</svg>