<?xml version="1.0" encoding="UTF-8"?>
<svg width="126px" height="33px" viewBox="0 0 126 33" version="1.1" xmlns="http://www.w3.org/2000/svg" xmlns:xlink="http://www.w3.org/1999/xlink">
    <!-- Generator: Sketch 50.2 (55047) - http://www.bohemiancoding.com/sketch -->
    <title>Okalpha Logo</title>
    <desc>Created with Sketch.</desc>
    <defs></defs>
    <g id="Page-1" stroke="none" stroke-width="1" fill="none" fill-rule="evenodd">
        <g id="Homepage-HD-Desktop" transform="translate(-241.000000, -47.000000)" fill="#000000">
            <g id="Top-Nav" transform="translate(240.000000, 39.000000)">
                <path d="M10.7744141,15.4726562 C12.4788497,15.4726562 14.0808844,15.8987588 15.5805664,16.7509766 C17.0802484,17.6031944 18.2506468,18.7597583 19.0917969,20.2207031 C19.9329469,21.6816479 20.3535156,23.2587806 20.3535156,24.9521484 C20.3535156,26.656584 19.93018,28.2503181 19.0834961,29.7333984 C18.2368122,31.2164788 17.0830151,32.3758096 15.6220703,33.2114258 C14.1611255,34.0470419 12.55079,34.4648438 10.7910156,34.4648438 C8.20115893,34.4648438 5.99040629,33.5434662 4.15869141,31.7006836 C2.32697652,29.8579009 1.41113281,27.6194793 1.41113281,24.9853516 C1.41113281,22.1630718 2.44595319,19.8112073 4.515625,17.9296875 C6.33073824,16.2916585 8.4169804,15.4726562 10.7744141,15.4726562 Z M10.8408203,19.7392578 C9.43521433,19.7392578 8.26481587,20.228999 7.32958984,21.2084961 C6.39436381,22.1879932 5.92675781,23.4413986 5.92675781,24.96875 C5.92675781,26.5403724 6.38883001,27.8131462 7.31298828,28.7871094 C8.23714655,29.7610726 9.407545,30.2480469 10.8242188,30.2480469 C12.2408925,30.2480469 13.4195917,29.7555388 14.3603516,28.7705078 C15.3011115,27.7854768 15.7714844,26.5182369 15.7714844,24.96875 C15.7714844,23.4192631 15.3094122,22.1603239 14.3852539,21.1918945 C13.4610956,20.2234652 12.2796296,19.7392578 10.8408203,19.7392578 Z M22.6572882,8.96484375 L27.1895148,8.96484375 L27.1895148,23.3916016 L33.8633429,15.9375 L39.5410773,15.9375 L31.771546,24.6035156 L40.4873663,34 L34.8594366,34 L27.1895148,25.6826172 L27.1895148,34 L22.6572882,34 L22.6572882,8.96484375 Z M54.2628186,15.9375 L58.7784436,15.9375 L58.7784436,34 L54.2628186,34 L54.2628186,32.0908203 C53.3773975,32.9319704 52.4892228,33.5379213 51.5982678,33.9086914 C50.7073128,34.2794615 49.7416649,34.4648438 48.7012951,34.4648438 C46.365997,34.4648438 44.3461604,33.5600676 42.6417248,31.7504883 C40.9372892,29.9409089 40.0850842,27.6914197 40.0850842,25.0019531 C40.0850842,22.2128767 40.9096202,19.9274178 42.558717,18.1455078 C44.2078138,16.3635979 46.211049,15.4726562 48.5684826,15.4726562 C49.6531235,15.4726562 50.6713424,15.6774068 51.6231701,16.0869141 C52.5749978,16.4964213 53.4548718,17.110673 54.2628186,17.9296875 L54.2628186,15.9375 Z M49.4981701,19.65625 C48.0925641,19.65625 46.9249326,20.151525 45.9952404,21.1420898 C45.0655483,22.1326547 44.6007092,23.4026615 44.6007092,24.9521484 C44.6007092,26.5127031 45.073849,27.7965444 46.0201428,28.8037109 C46.9664366,29.8108774 48.1313012,30.3144531 49.5147717,30.3144531 C50.9425132,30.3144531 52.1267462,29.8191781 53.0675061,28.8286133 C54.008266,27.8380484 54.4786389,26.5403726 54.4786389,24.9355469 C54.4786389,23.3639244 54.008266,22.0911507 53.0675061,21.1171875 C52.1267462,20.1432243 50.9369794,19.65625 49.4981701,19.65625 Z M61.4474505,8.96484375 L65.9796771,8.96484375 L65.9796771,34 L61.4474505,34 L61.4474505,8.96484375 Z M73.1477074,15.9375 L73.1477074,17.9296875 C73.9667219,17.110673 74.8521298,16.4964213 75.8039574,16.0869141 C76.7557851,15.6774068 77.7740041,15.4726562 78.8586449,15.4726562 C81.2160786,15.4726562 83.2193138,16.3635979 84.8684106,18.1455078 C86.5175073,19.9274178 87.3420434,22.2128767 87.3420434,25.0019531 C87.3420434,27.6914197 86.4898384,29.9409089 84.7854028,31.7504883 C83.0809671,33.5600676 81.0611306,34.4648438 78.7258324,34.4648438 C77.6854627,34.4648438 76.7170479,34.2794615 75.820559,33.9086914 C74.9240701,33.5379213 74.0331285,32.9319704 73.1477074,32.0908203 L73.1477074,40.6074219 L68.648684,40.6074219 L68.648684,15.9375 L73.1477074,15.9375 Z M77.9123559,19.65625 C76.4846144,19.65625 75.3003814,20.1432243 74.3596215,21.1171875 C73.4188616,22.0911507 72.9484887,23.3639244 72.9484887,24.9355469 C72.9484887,26.5403726 73.4188616,27.8380484 74.3596215,28.8286133 C75.3003814,29.8191781 76.4846144,30.3144531 77.9123559,30.3144531 C79.2958263,30.3144531 80.460691,29.8108774 81.4069848,28.8037109 C82.3532786,27.7965444 82.8264184,26.5127031 82.8264184,24.9521484 C82.8264184,23.4026615 82.3615793,22.1326547 81.4318871,21.1420898 C80.502195,20.151525 79.3290296,19.65625 77.9123559,19.65625 Z M89.6790191,8.96484375 L94.1780425,8.96484375 L94.1780425,17.7636719 C95.0634636,16.9999962 95.9544052,16.427248 96.8508941,16.0454102 C97.7473829,15.6635723 98.6549259,15.4726562 99.5735503,15.4726562 C101.366528,15.4726562 102.877255,16.0924417 104.105777,17.3320312 C105.157214,18.4056043 105.682925,19.982737 105.682925,22.0634766 L105.682925,34 L101.217105,34 L101.217105,26.0810547 C101.217105,23.9892474 101.117497,22.5725949 100.918277,21.8310547 C100.719057,21.0895145 100.378729,20.5361346 99.8972808,20.1708984 C99.4158331,19.8056622 98.8209497,19.6230469 98.1126128,19.6230469 C97.1939884,19.6230469 96.4054221,19.9274058 95.7468902,20.5361328 C95.0883582,21.1448598 94.6318198,21.9749296 94.3772613,23.0263672 C94.2444481,23.5686876 94.1780425,24.8082585 94.1780425,26.7451172 L94.1780425,34 L89.6790191,34 L89.6790191,8.96484375 Z M121.981815,15.9375 L126.49744,15.9375 L126.49744,34 L121.981815,34 L121.981815,32.0908203 C121.096394,32.9319704 120.208219,33.5379213 119.317264,33.9086914 C118.426309,34.2794615 117.460661,34.4648438 116.420292,34.4648438 C114.084993,34.4648438 112.065157,33.5600676 110.360721,31.7504883 C108.656286,29.9409089 107.804081,27.6914197 107.804081,25.0019531 C107.804081,22.2128767 108.628617,19.9274178 110.277714,18.1455078 C111.92681,16.3635979 113.930045,15.4726562 116.287479,15.4726562 C117.37212,15.4726562 118.390339,15.6774068 119.342167,16.0869141 C120.293994,16.4964213 121.173868,17.110673 121.981815,17.9296875 L121.981815,15.9375 Z M117.217167,19.65625 C115.811561,19.65625 114.643929,20.151525 113.714237,21.1420898 C112.784545,22.1326547 112.319706,23.4026615 112.319706,24.9521484 C112.319706,26.5127031 112.792845,27.7965444 113.739139,28.8037109 C114.685433,29.8108774 115.850298,30.3144531 117.233768,30.3144531 C118.66151,30.3144531 119.845743,29.8191781 120.786503,28.8286133 C121.727262,27.8380484 122.197635,26.5403726 122.197635,24.9355469 C122.197635,23.3639244 121.727262,22.0911507 120.786503,21.1171875 C119.845743,20.1432243 118.655976,19.65625 117.217167,19.65625 Z" id="Okalpha-Logo"></path>
            </g>
        </g>
    </g>
</svg>