<?xml version="1.0" encoding="UTF-8"?>
<svg width="1873px" height="1886px" viewBox="0 0 1873 1886" version="1.1" xmlns="http://www.w3.org/2000/svg" xmlns:xlink="http://www.w3.org/1999/xlink">
    <!-- Generator: Sketch 50.2 (55047) - http://www.bohemiancoding.com/sketch -->
    <title>team bg</title>
    <desc>Created with Sketch.</desc>
    <defs></defs>
    <g id="Page-1" stroke="none" stroke-width="1" fill="none" fill-rule="evenodd">
        <g id="Homepage-HD-Desktop" transform="translate(0.000000, -7651.000000)" fill="#E61C22">
            <g id="Team" transform="translate(-2.000000, 7055.000000)">
                <path d="M0.4,755.1 L0.4,596.5 L747.9,596.5 L747.9,755.1 L468.4,755.1 L468.4,1526 L279.9,1526 L279.9,755.1 L0.4,755.1 Z M1141.8,1545.5 C920.8,1545.5 796,1390.8 796,1191.9 C796,994.3 929.9,840.9 1124.9,840.9 C1339.4,840.9 1453.8,1004.7 1453.8,1242.6 L970.2,1242.6 C983.2,1345.3 1040.4,1409 1140.5,1409 C1209.4,1409 1249.7,1377.8 1269.2,1327.1 L1443.4,1327.1 C1418.7,1445.4 1313.4,1545.5 1141.8,1545.5 Z M1127.5,977.4 C1033.9,977.4 988.4,1033.3 972.8,1120.4 L1269.2,1120.4 C1264,1035.9 1208.1,977.4 1127.5,977.4 Z M1522.7,1280.3 L1522.7,1128.2 L1875,1128.2 L1875,1280.3 L1522.7,1280.3 Z M454.1,2466 C443.7,2453 437.2,2421.8 433.3,2391.9 L430.7,2391.9 C396.9,2442.6 348.8,2481.6 234.4,2481.6 C97.9,2481.6 1.7,2410.1 1.7,2277.5 C1.7,2130.6 121.3,2083.8 269.5,2063 C380,2047.4 430.7,2038.3 430.7,1987.6 C430.7,1939.5 393,1908.3 318.9,1908.3 C235.7,1908.3 195.4,1938.2 190.2,2001.9 L32.9,2001.9 C38.1,1884.9 125.2,1782.2 320.2,1782.2 C520.4,1782.2 601,1871.9 601,2027.9 L601,2367.2 C601,2417.9 608.8,2447.8 624.4,2459.5 L624.4,2466 L454.1,2466 Z M277.3,2358.1 C378.7,2358.1 434.6,2295.7 434.6,2230.7 L434.6,2130.6 C403.4,2148.8 355.3,2159.2 311.1,2169.6 C218.8,2190.4 173.3,2211.2 173.3,2273.6 C173.3,2336 214.9,2358.1 277.3,2358.1 Z M712.8,2466 L712.8,1799.1 L883.1,1799.1 L883.1,1888.8 L887,1888.8 C923.4,1827.7 988.4,1780.9 1080.7,1780.9 C1165.2,1780.9 1232.8,1827.7 1265.3,1897.9 L1267.9,1897.9 C1313.4,1825.1 1383.6,1780.9 1468.1,1780.9 C1608.5,1780.9 1687.8,1871.9 1687.8,2017.5 L1687.8,2466 L1511,2466 L1511,2047.4 C1511,1972 1473.3,1933 1408.3,1933 C1334.2,1933 1288.7,1990.2 1288.7,2078.6 L1288.7,2466 L1111.9,2466 L1111.9,2047.4 C1111.9,1972 1074.2,1933 1009.2,1933 C937.7,1933 889.6,1990.2 889.6,2078.6 L889.6,2466 L712.8,2466 Z" id="team-bg"></path>
            </g>
        </g>
    </g>
</svg>